HIERARCHY
ROOT root
{
	OFFSET	0	13.1	24.9
	CHANNELS 6  Xposition Yposition Zposition Xrotation Yrotation Zrotation
	JOINT spine_1
	{
		OFFSET	0	9.99999	0
		CHANNELS 3  Xrotation Yrotation Zrotation
		JOINT spine_2
		{
			OFFSET	0	112	-10
			CHANNELS 3  Xrotation Yrotation Zrotation
			JOINT spine_3
			{
				OFFSET	0	206.5	19.3
				CHANNELS 3  Xrotation Yrotation Zrotation
				JOINT spine_4
				{
					OFFSET	0	110.4	14.6
					CHANNELS 3  Xrotation Yrotation Zrotation
					JOINT neck_1
					{
						OFFSET	0	71.8	-50.3
						CHANNELS 3  Xrotation Yrotation Zrotation
						JOINT neck_2
						{
							OFFSET	0	86.2	-25.8
							CHANNELS 3  Xrotation Yrotation Zrotation
							JOINT head_ee
							{
								OFFSET	0	179.8	-8.7
								CHANNELS 3  Xrotation Yrotation Zrotation
								End Site
								{
									OFFSET	1	0	0
								}
							}
						}
					}
					JOINT left_clavicle
					{
						OFFSET	-43.2	22.4	-70.8
						CHANNELS 3  Xrotation Yrotation Zrotation
						JOINT left_shoulder
						{
							OFFSET	-93.9	-5.79999	48.7
							CHANNELS 3  Xrotation Yrotation Zrotation
							JOINT left_elbow
							{
								OFFSET	-291.4	-30.8	15.2
								CHANNELS 3  Xrotation Yrotation Zrotation
								JOINT left_lowarm_twist
								{
									OFFSET	-110.7	-3.89999	13.6
									CHANNELS 3  Xrotation Yrotation Zrotation
									JOINT left_hand
									{
										OFFSET	-110.7	-3.89999	13.6
										CHANNELS 3  Xrotation Yrotation Zrotation
										JOINT left_ee
										{
											OFFSET	-80.8	-5.10001	12.1
											CHANNELS 3  Xrotation Yrotation Zrotation
											End Site
											{
												OFFSET	1	0	0
											}
										}
									}
								}
							}
						}
					}
					JOINT right_clavicle
					{
						OFFSET	43.2	22.4	-70.8
						CHANNELS 3  Xrotation Yrotation Zrotation
						JOINT right_shoulder
						{
							OFFSET	93.9	-5.79999	48.7
							CHANNELS 3  Xrotation Yrotation Zrotation
							JOINT right_elbow
							{
								OFFSET	291.4	-30.8	15.2
								CHANNELS 3  Xrotation Yrotation Zrotation
								JOINT right_lowarm_twist
								{
									OFFSET	110.7	-3.89999	13.6
									CHANNELS 3  Xrotation Yrotation Zrotation
									JOINT right_hand
									{
										OFFSET	110.7	-3.89999	13.6
										CHANNELS 3  Xrotation Yrotation Zrotation
										JOINT right_ee
										{
											OFFSET	80.8	-5.10001	12.1
											CHANNELS 3  Xrotation Yrotation Zrotation
											End Site
											{
												OFFSET	1	0	0
											}
										}
									}
								}
							}
						}
					}
				}
			}
		}
	}
	JOINT left_hip
	{
		OFFSET	-82.8	-127.5	0.300001
		CHANNELS 3  Xrotation Yrotation Zrotation
		JOINT left_knee
		{
			OFFSET	-28.2	-396.7	2.2
			CHANNELS 3  Xrotation Yrotation Zrotation
			JOINT left_ankle
			{
				OFFSET	-11.7	-411.3	35.4
				CHANNELS 3  Xrotation Yrotation Zrotation
				JOINT left_toes
				{
					OFFSET	0	-60	-88.6
					CHANNELS 3  Xrotation Yrotation Zrotation
					JOINT left_foot_ee
					{
						OFFSET	-22.5	-16.5	-42.2
						CHANNELS 3  Xrotation Yrotation Zrotation
						End Site
						{
							OFFSET	1	0	0
						}
					}
				}
			}
		}
	}
	JOINT right_hip
	{
		OFFSET	82.8	-127.5	0.300001
		CHANNELS 3  Xrotation Yrotation Zrotation
		JOINT right_knee
		{
			OFFSET	28.2	-396.7	2.2
			CHANNELS 3  Xrotation Yrotation Zrotation
			JOINT right_ankle
			{
				OFFSET	11.7	-411.3	35.4
				CHANNELS 3  Xrotation Yrotation Zrotation
				JOINT right_toes
				{
					OFFSET	0	-60	-88.6
					CHANNELS 3  Xrotation Yrotation Zrotation
					JOINT right_foot_ee
					{
						OFFSET	22.5	-16.5	-42.2
						CHANNELS 3  Xrotation Yrotation Zrotation
						End Site
						{
							OFFSET	1	0	0
						}
					}
				}
			}
		}
	}
}
MOTION
Frames: 12
Frame Time: 0.02
3574.42 741.953 -1474.73 -164.596823627 77.5580719247 159.136282417 0.964722 0.38827 2.82048 0.969123 0.208083 2.83945 0.98055 -0.345231 2.82606 0.969421 0.105238 2.84511 -6.57169 7.60055 -4.24596 -6.48386 17.1729 -2.78028 -0.0 0.0 -0.0 -3.22035 -1.92232 -6.58643 -9.78479 -32.0538 57.3476 2.25148 -48.1139 1.00521 -17.4967 -0.933457 2.02452 -1.53114 1.26653 -9.70274 -0.0 0.0 -0.0 7.99166 -8.2121 -15.2725 -19.3757 22.5406 -61.5763 0.54047 14.9886 -0.0711002 34.2613 0.0848939 4.31132 2.28522 -17.5848 -21.5892 0.0 0.0 0.0 6.00275 6.18373 1.29802 -17.9203 0.314595 2.72084 -0.768167 -7.62655 0.117198 -2.14882 0.0 0.0 -0.0 0.0 -0.0 9.96403 0.389257 5.06198 -21.5842 -0.273449 -3.28143 21.9094 4.88489 3.02869 0.544994 -0.0 -0.0 0.0 0.0 0.0 
3574.42 741.953 -1474.73 -163.80877921 78.1573662924 158.330216269 0.964722 0.38827 2.82048 0.969123 0.208083 2.83945 0.98055 -0.345231 2.82606 0.969421 0.105238 2.84511 -6.57169 7.60055 -4.24596 -6.48386 17.1729 -2.78028 -0.0 0.0 -0.0 -3.22035 -1.92232 -6.58643 -9.78479 -32.0538 57.3476 2.25148 -48.1139 1.00521 -17.4967 -0.933457 2.02452 -1.53114 1.26653 -9.70274 -0.0 0.0 -0.0 7.99166 -8.2121 -15.2725 -19.3757 22.5406 -61.5763 0.54047 14.9886 -0.0711002 34.2613 0.0848939 4.31132 2.28522 -17.5848 -21.5892 0.0 0.0 0.0 6.00275 6.18373 1.29802 -17.9203 0.314595 2.72084 -0.768167 -7.62655 0.117198 -2.14882 0.0 0.0 -0.0 0.0 -0.0 9.96403 0.389257 5.06198 -21.5842 -0.273449 -3.28143 21.9094 4.88489 3.02869 0.544994 -0.0 -0.0 0.0 0.0 0.0 
3574.42 741.953 -1474.73 -162.639234776 78.9431499216 157.136954132 0.964722 0.38827 2.82048 0.969123 0.208083 2.83945 0.98055 -0.345231 2.82606 0.969421 0.105238 2.84511 -6.57169 7.60055 -4.24596 -6.48386 17.1729 -2.78028 -0.0 0.0 -0.0 -3.22035 -1.92232 -6.58643 -9.78479 -32.0538 57.3476 2.25148 -48.1139 1.00521 -17.4967 -0.933457 2.02452 -1.53114 1.26653 -9.70274 -0.0 0.0 -0.0 7.99166 -8.2121 -15.2725 -19.3757 22.5406 -61.5763 0.54047 14.9886 -0.0711002 34.2613 0.0848939 4.31132 2.28522 -17.5848 -21.5892 0.0 0.0 0.0 6.00275 6.18373 1.29802 -17.9203 0.314595 2.72084 -0.768167 -7.62655 0.117198 -2.14882 0.0 0.0 -0.0 0.0 -0.0 9.96403 0.389257 5.06198 -21.5842 -0.273449 -3.28143 21.9094 4.88489 3.02869 0.544994 -0.0 -0.0 0.0 0.0 0.0 
3574.42 741.953 -1474.73 -160.948175434 79.9032450317 155.416731393 0.964722 0.38827 2.82048 0.969123 0.208083 2.83945 0.98055 -0.345231 2.82606 0.969421 0.105238 2.84511 -6.57169 7.60055 -4.24596 -6.48386 17.1729 -2.78028 -0.0 0.0 -0.0 -3.22035 -1.92232 -6.58643 -9.78479 -32.0538 57.3476 2.25148 -48.1139 1.00521 -17.4967 -0.933457 2.02452 -1.53114 1.26653 -9.70274 -0.0 0.0 -0.0 7.99166 -8.2121 -15.2725 -19.3757 22.5406 -61.5763 0.54047 14.9886 -0.0711002 34.2613 0.0848939 4.31132 2.28522 -17.5848 -21.5892 0.0 0.0 0.0 6.00275 6.18373 1.29802 -17.9203 0.314595 2.72084 -0.768167 -7.62655 0.117198 -2.14882 0.0 0.0 -0.0 0.0 -0.0 9.96403 0.389257 5.06198 -21.5842 -0.273449 -3.28143 21.9094 4.88489 3.02869 0.544994 -0.0 -0.0 0.0 0.0 0.0 
3574.42 741.953 -1474.73 -158.709523962 80.9321268943 153.146502812 0.964722 0.38827 2.82048 0.969123 0.208083 2.83945 0.98055 -0.345231 2.82606 0.969421 0.105238 2.84511 -6.57169 7.60055 -4.24596 -6.48386 17.1729 -2.78028 -0.0 0.0 -0.0 -3.22035 -1.92232 -6.58643 -9.78479 -32.0538 57.3476 2.25148 -48.1139 1.00521 -17.4967 -0.933457 2.02452 -1.53114 1.26653 -9.70274 -0.0 0.0 -0.0 7.99166 -8.2121 -15.2725 -19.3757 22.5406 -61.5763 0.54047 14.9886 -0.0711002 34.2613 0.0848939 4.31132 2.28522 -17.5848 -21.5892 0.0 0.0 0.0 6.00275 6.18373 1.29802 -17.9203 0.314595 2.72084 -0.768167 -7.62655 0.117198 -2.14882 0.0 0.0 -0.0 0.0 -0.0 9.96403 0.389257 5.06198 -21.5842 -0.273449 -3.28143 21.9094 4.88489 3.02869 0.544994 -0.0 -0.0 0.0 0.0 0.0 
3574.42 741.953 -1474.73 -155.342628534 82.115952344 149.742630659 0.964722 0.38827 2.82048 0.969123 0.208083 2.83945 0.98055 -0.345231 2.82606 0.969421 0.105238 2.84511 -6.57169 7.60055 -4.24596 -6.48386 17.1729 -2.78028 -0.0 0.0 -0.0 -3.22035 -1.92232 -6.58643 -9.78479 -32.0538 57.3476 2.25148 -48.1139 1.00521 -17.4967 -0.933457 2.02452 -1.53114 1.26653 -9.70274 -0.0 0.0 -0.0 7.99166 -8.2121 -15.2725 -19.3757 22.5406 -61.5763 0.54047 14.9886 -0.0711002 34.2613 0.0848939 4.31132 2.28522 -17.5848 -21.5892 0.0 0.0 0.0 6.00275 6.18373 1.29802 -17.9203 0.314595 2.72084 -0.768167 -7.62655 0.117198 -2.14882 0.0 0.0 -0.0 0.0 -0.0 9.96403 0.389257 5.06198 -21.5842 -0.273449 -3.28143 21.9094 4.88489 3.02869 0.544994 -0.0 -0.0 0.0 0.0 0.0 
3574.42 741.953 -1474.73 -150.172598675 83.393377133 144.531367478 0.964722 0.38827 2.82048 0.969123 0.208083 2.83945 0.98055 -0.345231 2.82606 0.969421 0.105238 2.84511 -6.57169 7.60055 -4.24596 -6.48386 17.1729 -2.78028 -0.0 0.0 -0.0 -3.22035 -1.92232 -6.58643 -9.78479 -32.0538 57.3476 2.25148 -48.1139 1.00521 -17.4967 -0.933457 2.02452 -1.53114 1.26653 -9.70274 -0.0 0.0 -0.0 7.99166 -8.2121 -15.2725 -19.3757 22.5406 -61.5763 0.54047 14.9886 -0.0711002 34.2613 0.0848939 4.31132 2.28522 -17.5848 -21.5892 0.0 0.0 0.0 6.00275 6.18373 1.29802 -17.9203 0.314595 2.72084 -0.768167 -7.62655 0.117198 -2.14882 0.0 0.0 -0.0 0.0 -0.0 9.96403 0.389257 5.06198 -21.5842 -0.273449 -3.28143 21.9094 4.88489 3.02869 0.544994 -0.0 -0.0 0.0 0.0 0.0 
3574.42 741.953 -1474.73 -139.639152824 84.9304055427 133.944260953 0.964722 0.38827 2.82048 0.969123 0.208083 2.83945 0.98055 -0.345231 2.82606 0.969421 0.105238 2.84511 -6.57169 7.60055 -4.24596 -6.48386 17.1729 -2.78028 -0.0 0.0 -0.0 -3.22035 -1.92232 -6.58643 -9.78479 -32.0538 57.3476 2.25148 -48.1139 1.00521 -17.4967 -0.933457 2.02452 -1.53114 1.26653 -9.70274 -0.0 0.0 -0.0 7.99166 -8.2121 -15.2725 -19.3757 22.5406 -61.5763 0.54047 14.9886 -0.0711002 34.2613 0.0848939 4.31132 2.28522 -17.5848 -21.5892 0.0 0.0 0.0 6.00275 6.18373 1.29802 -17.9203 0.314595 2.72084 -0.768167 -7.62655 0.117198 -2.14882 0.0 0.0 -0.0 0.0 -0.0 9.96403 0.389257 5.06198 -21.5842 -0.273449 -3.28143 21.9094 4.88489 3.02869 0.544994 -0.0 -0.0 0.0 0.0 0.0 
3574.42 741.953 -1474.73 -118.197952384 86.2770718315 112.442712111 0.964722 0.38827 2.82048 0.969123 0.208083 2.83945 0.98055 -0.345231 2.82606 0.969421 0.105238 2.84511 -6.57169 7.60055 -4.24596 -6.48386 17.1729 -2.78028 -0.0 0.0 -0.0 -3.22035 -1.92232 -6.58643 -9.78479 -32.0538 57.3476 2.25148 -48.1139 1.00521 -17.4967 -0.933457 2.02452 -1.53114 1.26653 -9.70274 -0.0 0.0 -0.0 7.99166 -8.2121 -15.2725 -19.3757 22.5406 -61.5763 0.54047 14.9886 -0.0711002 34.2613 0.0848939 4.31132 2.28522 -17.5848 -21.5892 0.0 0.0 0.0 6.00275 6.18373 1.29802 -17.9203 0.314595 2.72084 -0.768167 -7.62655 0.117198 -2.14882 0.0 0.0 -0.0 0.0 -0.0 9.96403 0.389257 5.06198 -21.5842 -0.273449 -3.28143 21.9094 4.88489 3.02869 0.544994 -0.0 -0.0 0.0 0.0 0.0 
3574.42 741.953 -1474.73 -69.2070443772 86.4905950885 63.3656535962 0.964722 0.38827 2.82048 0.969123 0.208083 2.83945 0.98055 -0.345231 2.82606 0.969421 0.105238 2.84511 -6.57169 7.60055 -4.24596 -6.48386 17.1729 -2.78028 -0.0 0.0 -0.0 -3.22035 -1.92232 -6.58643 -9.78479 -32.0538 57.3476 2.25148 -48.1139 1.00521 -17.4967 -0.933457 2.02452 -1.53114 1.26653 -9.70274 -0.0 0.0 -0.0 7.99166 -8.2121 -15.2725 -19.3757 22.5406 -61.5763 0.54047 14.9886 -0.0711002 34.2613 0.0848939 4.31132 2.28522 -17.5848 -21.5892 0.0 0.0 0.0 6.00275 6.18373 1.29802 -17.9203 0.314595 2.72084 -0.768167 -7.62655 0.117198 -2.14882 0.0 0.0 -0.0 0.0 -0.0 9.96403 0.389257 5.06198 -21.5842 -0.273449 -3.28143 21.9094 4.88489 3.02869 0.544994 -0.0 -0.0 0.0 0.0 0.0 
3574.42 741.953 -1474.73 -29.4104122695 83.3078708057 23.4374697066 0.964722 0.38827 2.82048 0.969123 0.208083 2.83945 0.98055 -0.345231 2.82606 0.969421 0.105238 2.84511 -6.57169 7.60055 -4.24596 -6.48386 17.1729 -2.78028 -0.0 0.0 -0.0 -3.22035 -1.92232 -6.58643 -9.78479 -32.0538 57.3476 2.25148 -48.1139 1.00521 -17.4967 -0.933457 2.02452 -1.53114 1.26653 -9.70274 -0.0 0.0 -0.0 7.99166 -8.2121 -15.2725 -19.3757 22.5406 -61.5763 0.54047 14.9886 -0.0711002 34.2613 0.0848939 4.31132 2.28522 -17.5848 -21.5892 0.0 0.0 0.0 6.00275 6.18373 1.29802 -17.9203 0.314595 2.72084 -0.768167 -7.62655 0.117198 -2.14882 0.0 0.0 -0.0 0.0 -0.0 9.96403 0.389257 5.06198 -21.5842 -0.273449 -3.28143 21.9094 4.88489 3.02869 0.544994 -0.0 -0.0 0.0 0.0 0.0 
3575.45129005 737.432 -1474.08467773 -27.6019772346 80.4840579074 21.5912196541 1.22798 0.32174 2.75233 1.23218 0.146018 2.76721 1.23994 -0.379769 2.74493 1.22943 0.058335 2.77045 -6.04868 6.93014 -5.27222 -5.91123 16.6818 -4.03307 -0.0 0.0 -0.0 -3.19951 -3.43574 -6.80467 -10.4847 -36.0852 57.2433 2.06708 -45.6731 0.870549 -14.0816 -0.703185 1.65298 -1.21103 2.33393 -7.06868 -0.0 0.0 -0.0 8.21834 -7.66929 -15.7249 -18.3752 20.9383 -61.0676 0.484116 13.486 -0.0572393 35.8726 0.152167 4.50599 3.25964 -11.7503 -26.5673 0.0 0.0 0.0 9.8851 -3.52524 2.60184 -23.2119 0.243688 3.52941 -5.31779 -1.87557 0.800276 -1.28184 0.0 0.0 -0.0 0.0 -0.0 10.6821 -0.330964 4.32188 -19.2885 -0.303426 -2.93046 23.7323 2.5935 3.2253 -1.07337 0.0 0.0 0.0 0.0 0.0 
